<?xml version="1.0" encoding="UTF-8"?>
<svg version="1.1" xmlns="http://www.w3.org/2000/svg" width="500" height="500">
<path d="M0 0 C165 0 330 0 500 0 C500 165 500 330 500 500 C335 500 170 500 0 500 C0 335 0 170 0 0 Z " fill="#FEFEFE" transform="translate(0,0)"/>
<path d="M0 0 C9.42631563 7.8206306 16.89574541 17.2450106 18.94921875 29.6171875 C20.14969035 44.73979498 17.41015225 59.9345761 7.359375 71.79296875 C4.65545585 74.83458384 1.80958963 77.72306593 -1.05078125 80.6171875 C-1.92863281 81.60332031 -1.92863281 81.60332031 -2.82421875 82.609375 C-13.32826624 94.17982325 -29.16004806 101.0745179 -44.05078125 104.6171875 C-40.18127164 108.80978237 -36.06692344 111.73488492 -31.23828125 114.7421875 C-29.71764644 115.70920434 -28.19814239 116.67800124 -26.6796875 117.6484375 C-25.91027832 118.13957031 -25.14086914 118.63070312 -24.34814453 119.13671875 C-14.11081249 125.73386875 -4.31911297 132.70325382 4.94921875 140.6171875 C6.06585877 141.56054426 7.18307531 142.5032189 8.30078125 143.4453125 C10.50617323 145.30573559 12.70799385 147.17021502 14.90625 149.0390625 C16.46008794 150.35553623 18.01545232 151.67073888 19.59912109 152.95117188 C22.1982348 155.05817832 24.0761128 156.80752858 25.94921875 159.6171875 C26.41465211 164.64386781 25.98777286 167.56578202 22.94921875 171.6171875 C20.08949716 174.95352935 17.80470692 175.54214468 13.38671875 175.9296875 C-1.76674753 175.59966646 -16.07537591 162.08945422 -27.30957031 153.02001953 C-30.16533975 150.71922716 -33.04389944 148.44763868 -35.92578125 146.1796875 C-36.77124512 145.51404785 -36.77124512 145.51404785 -37.63378906 144.83496094 C-42.31415638 141.1648584 -47.04689707 137.56641996 -51.80078125 133.9921875 C-52.49284668 133.47084229 -53.18491211 132.94949707 -53.89794922 132.41235352 C-57.33441599 129.79561265 -57.33441599 129.79561265 -61.05078125 127.6171875 C-61.004375 128.24625 -60.95796875 128.8753125 -60.91015625 129.5234375 C-60.64533978 135.803371 -61.24421691 140.48660078 -65.05078125 145.6171875 C-68.30079251 148.57174319 -70.78229611 149.85078048 -75.11328125 150.0546875 C-80.64122257 149.4404718 -83.26636964 147.67313293 -86.80078125 143.5546875 C-90.14305701 139.19116081 -90.17088855 137.11650931 -90.19140625 131.6328125 C-90.2097417 130.20831744 -90.2293127 128.78383785 -90.25 127.359375 C-90.27890429 125.11659793 -90.30077958 122.87481102 -90.30126953 120.63183594 C-90.30462141 118.46460428 -90.33927248 116.29964656 -90.37890625 114.1328125 C-90.3929248 112.18810059 -90.3929248 112.18810059 -90.40722656 110.20410156 C-91.23975314 105.56393447 -92.84307391 103.9964034 -96.05078125 100.6171875 C-97.96280135 96.79314729 -97.74942049 92.76279278 -97.05078125 88.6171875 C-95.52178955 86.54850769 -95.52178955 86.54850769 -93.61035156 84.54370117 C-89.1503553 79.08592532 -88.86120157 74.22779563 -88.59765625 67.35546875 C-88.52589172 66.20604294 -88.4541272 65.05661713 -88.38018799 63.87236023 C-88.15688028 60.2258011 -87.97635297 56.5788299 -87.80078125 52.9296875 C-87.60431017 49.27065436 -87.39860147 45.61257016 -87.17852783 41.95487976 C-87.04411049 39.68637291 -86.92426877 37.41694216 -86.82098389 35.14680481 C-86.51718677 29.67383505 -86.23849114 25.27890284 -83.05078125 20.6171875 C-79.34951266 18.14967511 -77.42854593 18.30997594 -73.05078125 18.6171875 C-70.80078125 19.1796875 -70.80078125 19.1796875 -69.05078125 20.6171875 C-66.63211149 25.50963595 -65.55260769 29.63829 -64.98828125 35.1171875 C-64.91303223 35.83205322 -64.8377832 36.54691895 -64.76025391 37.28344727 C-64.50937262 39.72682407 -64.27895145 42.17158864 -64.05078125 44.6171875 C-63.95909668 45.5644873 -63.86741211 46.51178711 -63.77294922 47.48779297 C-63.48234495 50.50938893 -63.20172974 53.53171944 -62.92578125 56.5546875 C-62.83804443 57.50085938 -62.75030762 58.44703125 -62.65991211 59.421875 C-62.13163959 65.50313932 -61.94639727 71.51403858 -62.05078125 77.6171875 C-44.31341936 72.00035623 -24.13926104 64.05883073 -15.01953125 46.6484375 C-12.93995403 41.79609065 -11.93753421 36.83667361 -13.05078125 31.6171875 C-17.54718716 22.75193329 -25.21408038 18.5086714 -34.30859375 15.46484375 C-35.21351563 15.18511719 -36.1184375 14.90539062 -37.05078125 14.6171875 C-37.77007812 14.38902344 -38.489375 14.16085938 -39.23046875 13.92578125 C-49.66155211 11.11135687 -60.6796383 12.37965041 -71.171875 14.15625 C-80.40257738 15.63416436 -80.40257738 15.63416436 -84.98828125 12.8046875 C-87.61128014 10.02271898 -87.98405597 8.05924248 -88.55078125 4.3046875 C-88.04644277 0.58519123 -87.92864132 -0.0926068 -85.42578125 -2.5703125 C-80.01378855 -6.64828696 -73.54904702 -7.90742421 -67.05078125 -9.3828125 C-66.40898926 -9.53379395 -65.76719727 -9.68477539 -65.10595703 -9.84033203 C-43.35069114 -14.87079636 -18.60793365 -13.68126169 0 0 Z " fill="#030303" transform="translate(188.05078125,166.3828125)"/>
<path d="M0 0 C14.33990221 12.22712665 24.50758447 28.17233192 26.33203125 47.24609375 C27.50623588 68.35313789 27.50623588 68.35313789 24.4921875 78.125 C24.03199219 79.62546875 24.03199219 79.62546875 23.5625 81.15625 C16.54112431 101.49402786 1.02283699 115.6721744 -17.9453125 125.0625 C-20.12112206 126.10801888 -22.30858949 127.12967338 -24.5078125 128.125 C-25.62542969 128.63804687 -26.74304688 129.15109375 -27.89453125 129.6796875 C-40.7159937 134.80827248 -57.66182644 138.17133827 -71.1953125 134.0625 C-76.45495432 130.98610573 -79.53697804 127.52897103 -81.8203125 121.875 C-83.588666 112.22943545 -83.66560843 102.5578061 -83.62890625 92.77734375 C-83.6275662 92.09600813 -83.62622616 91.41467251 -83.6248455 90.71269035 C-83.58808989 73.8272722 -83.1327667 56.95303122 -82.63897705 40.0758667 C-82.54595829 36.8403848 -82.45914593 33.60474694 -82.37224674 30.3690958 C-82.28664965 27.20930493 -82.19741024 24.049625 -82.10705376 20.88996696 C-82.06494294 19.40420414 -82.02387151 17.91841142 -81.9839344 16.43258858 C-81.41415377 -4.54214518 -81.41415377 -4.54214518 -78.3828125 -9 C-75.5078125 -10.875 -75.5078125 -10.875 -71.9453125 -10.9375 C-68.06834513 -9.73916463 -66.78530418 -9.20989853 -64.5078125 -5.875 C-61.62277053 1.6354322 -60.53456472 9.44496457 -59.5234375 17.3828125 C-59.35547668 18.67389923 -59.18751587 19.96498596 -59.01446533 21.29519653 C-56.97883922 37.33360354 -55.72663495 53.44833962 -54.45178223 69.56140137 C-54.12205376 73.7067667 -53.78322283 77.85138878 -53.4453125 81.99609375 C-52.79091092 90.03838807 -52.1460406 98.08140602 -51.5078125 106.125 C-50.09249516 105.99995858 -48.67800538 105.86553309 -47.26391602 105.72729492 C-46.08225609 105.61655891 -46.08225609 105.61655891 -44.87672424 105.50358582 C-41.03308284 104.88931721 -37.85243295 103.2546588 -34.4453125 101.4375 C-33.40225952 100.8962146 -33.40225952 100.8962146 -32.33813477 100.34399414 C-27.35395103 97.70420759 -22.7308171 94.89092646 -18.5078125 91.125 C-17.90839844 90.60550781 -17.30898438 90.08601563 -16.69140625 89.55078125 C-7.94789053 81.44933796 -3.08343234 71.33491744 -2.34375 59.5 C-1.9888415 47.36858211 -4.00545479 35.92025433 -11.5078125 26.125 C-12.23097656 25.41601562 -12.95414062 24.70703125 -13.69921875 23.9765625 C-15.5078125 22.125 -15.5078125 22.125 -15.5078125 20.125 C-16.08273437 19.86332031 -16.65765625 19.60164063 -17.25 19.33203125 C-19.65382293 18.04694252 -21.53933952 16.55448582 -23.6328125 14.8125 C-30.43186872 9.48620351 -36.83679024 6.3465716 -45.3203125 4.625 C-52.17744976 3.17756183 -52.17744976 3.17756183 -54.8203125 0.8125 C-56.89282001 -2.4881601 -57.22565068 -4.04652972 -56.5078125 -7.875 C-54.95837411 -10.83914301 -53.69082268 -12.42643229 -50.51953125 -13.62890625 C-33.29137974 -17.88387286 -13.64194924 -10.68686824 0 0 Z " fill="#030303" transform="translate(291.5078125,188.875)"/>
<path d="M0 0 C8.52891012 -0.27721268 16.4434461 0.29353596 23.51953125 5.515625 C26.09536699 8.14902132 27.06385719 10.67962906 27.29296875 14.2578125 C26.66954983 18.62174491 25.94685942 20.23971027 22.73046875 23.1953125 C19.24830125 25.07032577 16.62628938 25.26685512 12.73046875 25.1953125 C12.85599121 25.79682129 12.98151367 26.39833008 13.11083984 27.01806641 C18.18917365 51.80665337 19.91207157 77.13535231 15.73046875 102.1953125 C15.62089844 103.17113281 15.51132812 104.14695312 15.3984375 105.15234375 C12.95466467 124.78309033 2.95848962 144.71936513 -10.26953125 159.1953125 C-10.99011719 159.99710938 -11.71070313 160.79890625 -12.453125 161.625 C-18.9690138 168.52417638 -26.96093988 175.37753214 -36.64453125 176.6328125 C-40.26953125 176.1953125 -40.26953125 176.1953125 -43.26953125 173.6328125 C-45.26953125 170.1953125 -45.26953125 170.1953125 -45.64453125 166.8203125 C-44.18671114 162.97696857 -43.34588601 162.18877899 -40.26953125 159.6953125 C-15.45459122 139.09497339 -14.47404836 97.86362975 -11.73974609 68.44970703 C-10.40234015 53.71332746 -9.3201283 38.95450652 -8.26953125 24.1953125 C-11.15139637 24.50215424 -14.03280392 24.8125559 -16.9140625 25.125 C-17.7249231 25.21096436 -18.53578369 25.29692871 -19.37121582 25.38549805 C-23.61884795 25.84895448 -27.77756628 26.4049523 -31.95703125 27.3203125 C-37.14081444 28.42476115 -41.3185856 29.19154006 -46.20703125 26.6953125 C-48.51288037 23.90034387 -49.19704411 21.92973542 -48.92578125 18.28125 C-47.5265325 13.83363791 -44.1058597 11.56549126 -40.26953125 9.1953125 C-31.39301152 4.78097856 -21.99758585 2.78152893 -12.26953125 1.1953125 C-11.45871094 1.06253906 -10.64789063 0.92976562 -9.8125 0.79296875 C-6.5486837 0.35093055 -3.28685507 0.19634738 0 0 Z " fill="#030303" transform="translate(361.26953125,160.8046875)"/>
<path d="M0 0 C2.79563494 2.18195898 3.78900222 3.64568869 4.3359375 7.15625 C4.53877891 11.83720555 4.2016419 15.35675232 1 19 C-2.63595248 21.06364871 -5.86648964 21.60280359 -10 21 C-14.22857404 17.52317245 -15.75890023 15.12971465 -16.375 9.6875 C-15.87765929 4.79698299 -14.42915508 3.42915508 -11 0 C-7.48165899 -1.7591705 -3.72167026 -0.9386806 0 0 Z " fill="#090909" transform="translate(398,285)"/>
<path d="M0 0 C3.93449672 0.5828884 6.20683331 2.20683331 9 5 C12.00548322 10.27152216 12.95622044 16.02362222 12 22 C10.43162966 26.4821564 8.99384459 29.33743694 5 32 C5.875 26.25 5.875 26.25 7 24 C7.86342376 14.79958291 6.46884788 8.95549697 1.25 1.5 C0.8375 1.005 0.425 0.51 0 0 Z " fill="#E4E4E4" transform="translate(172,184)"/>
<path d="M0 0 C3.25968184 1.03355766 6.28828932 2.13880597 9.375 3.625 C15.01924578 5.76592081 20.12805632 5.46798592 26 4 C24.25 7.875 24.25 7.875 22 9 C14.59430029 10.14491248 9.56136503 8.24593666 3.15234375 4.60546875 C1 3 1 3 0 0 Z " fill="#E9E9E9" transform="translate(183,329)"/>
<path d="M0 0 C3 1 3 1 5 4 C4.21625 4.9075 3.4325 5.815 2.625 6.75 C0.69947504 9.05190236 -0.82205741 11.21577207 -2 14 C-3.32 13.34 -4.64 12.68 -6 12 C-5.73781251 7.5428126 -5.42288711 5.48477302 -2.4375 2.0625 C-1.633125 1.381875 -0.82875 0.70125 0 0 Z " fill="#1C1C1C" transform="translate(108,185)"/>
<path d="M0 0 C1.42442646 1.87424534 2.8307736 3.7359588 4.1015625 5.71875 C8.19984739 11.95871926 12.94138873 13.81519175 20 16 C20 16.33 20 16.66 20 17 C13.5353897 17.45365686 10.30914982 16.77766429 5 13 C0.73402177 8.95854694 0.38216458 5.63692759 0 0 Z " fill="#E0E0E0" transform="translate(213,303)"/>
<path d="M0 0 C1.94686175 2.92029262 2.65034136 5.05022988 3.625 8.375 C5.44941303 13.63237341 7.49906043 15.76685055 12.390625 18.29296875 C12.92171875 18.52628906 13.4528125 18.75960938 14 19 C13.67 19.66 13.34 20.32 13 21 C8.07395127 20.56534864 5.48108776 18.40373025 2 15 C-0.85538552 10.45734121 -0.18124162 5.18552419 0 0 Z " fill="#EBEBEB" transform="translate(102,291)"/>
<path d="M0 0 C0.66 0 1.32 0 2 0 C1.98839844 0.81984375 1.97679688 1.6396875 1.96484375 2.484375 C1.95582031 3.56203125 1.94679688 4.6396875 1.9375 5.75 C1.92589844 6.81734375 1.91429688 7.8846875 1.90234375 8.984375 C1.98489913 11.53368501 2.25382442 13.57933591 3 16 C-1.7613531 12.19091752 -1.7613531 12.19091752 -2.40234375 8.9921875 C-2.46560278 5.18258832 -2.13372486 3.20058729 0 0 Z " fill="#EDEDED" transform="translate(97,252)"/>
<path d="M0 0 C0.66 0 1.32 0 2 0 C2.66 0.99 3.32 1.98 4 3 C5.96361864 3.57748803 5.96361864 3.57748803 8.125 3.6875 C9.40375 3.790625 10.6825 3.89375 12 4 C10.9375 5.5 10.9375 5.5 9 7 C5.4375 7.3125 5.4375 7.3125 2 7 C0 5 0 5 -0.125 2.375 C-0.08375 1.59125 -0.0425 0.8075 0 0 Z " fill="#E3E3E3" transform="translate(320,327)"/>
<path d="M0 0 C3 3 3 3 3.34057617 5.17651367 C3.32486572 5.99869385 3.30915527 6.82087402 3.29296875 7.66796875 C3.28330078 8.56064453 3.27363281 9.45332031 3.26367188 10.37304688 C3.23853516 11.30181641 3.21339844 12.23058594 3.1875 13.1875 C3.16719727 14.59805664 3.16719727 14.59805664 3.14648438 16.03710938 C3.11113096 18.35865038 3.06178674 20.67903653 3 23 C2.67 23 2.34 23 2 23 C1.67 18.71 1.34 14.42 1 10 C0.67 10 0.34 10 0 10 C0 6.7 0 3.4 0 0 Z " fill="#B0B0B0" transform="translate(207,200)"/>
<path d="M0 0 C0.2475 0.5775 0.495 1.155 0.75 1.75 C2.53195718 4.95752293 4.7014109 7.35070545 8 9 C8 9.66 8 10.32 8 11 C5.75 11.3125 5.75 11.3125 3 11 C0.32309906 8.4677964 -0.89306874 6.94099508 -1.3125 3.25 C-1 1 -1 1 0 0 Z " fill="#E4E4E4" transform="translate(104,167)"/>
<path d="M0 0 C0.7425 0.763125 1.485 1.52625 2.25 2.3125 C4.4263323 4.4393702 6.52167796 6.2559956 9 8 C6.25 8.75 6.25 8.75 3 9 C0.5625 7.375 0.5625 7.375 -1 5 C-0.75 2.25 -0.75 2.25 0 0 Z " fill="#DDDDDD" transform="translate(317,177)"/>
<path d="M0 0 C0 2 0 2 -2.3125 4.4375 C-3.199375 5.283125 -4.08625 6.12875 -5 7 C-5.8971875 7.8971875 -5.8971875 7.8971875 -6.8125 8.8125 C-7.204375 9.204375 -7.59625 9.59625 -8 10 C-8.32899743 6.38102827 -8.44576634 4.60496861 -6.25 1.625 C-4 0 -4 0 0 0 Z " fill="#E3E3E3" transform="translate(222,181)"/>
<path d="M0 0 C1.32 0.33 2.64 0.66 4 1 C3.21625 1.9075 2.4325 2.815 1.625 3.75 C-0.30052496 6.05190236 -1.82205741 8.21577207 -3 11 C-3.33 11 -3.66 11 -4 11 C-4.36630156 7.06225823 -4.30233203 5.43460229 -2 2.125 C-1.34 1.42375 -0.68 0.7225 0 0 Z " fill="#EDEDED" transform="translate(109,188)"/>
<path d="M0 0 C0.66 0 1.32 0 2 0 C1.73334769 3.91090062 1.40818918 5.581069 -1.375 8.4375 C-2.24125 8.953125 -3.1075 9.46875 -4 10 C-4.99 9.67 -5.98 9.34 -7 9 C-6.57847656 8.51789063 -6.15695312 8.03578125 -5.72265625 7.5390625 C-5.17480469 6.90742188 -4.62695312 6.27578125 -4.0625 5.625 C-3.51722656 4.99851563 -2.97195313 4.37203125 -2.41015625 3.7265625 C-0.93041376 2.04367666 -0.93041376 2.04367666 0 0 Z " fill="#E0E0E0" transform="translate(383,172)"/>
<path d="M0 0 C0.66 0 1.32 0 2 0 C2.33 3.63 2.66 7.26 3 11 C1.68 10.01 0.36 9.02 -1 8 C-1.3125 4.375 -1.3125 4.375 -1 1 C-0.67 0.67 -0.34 0.34 0 0 Z " fill="#D9D9D9" transform="translate(387,290)"/>
<path d="M0 0 C0.66 0 1.32 0 2 0 C2.226875 0.78375 2.45375 1.5675 2.6875 2.375 C3.78125 5.21875 3.78125 5.21875 6.625 6.3125 C7.40875 6.539375 8.1925 6.76625 9 7 C9 7.33 9 7.66 9 8 C6.1875 8.25 6.1875 8.25 3 8 C1.125 6.25 1.125 6.25 0 4 C0 2.68 0 1.36 0 0 Z " fill="#DFDFDF" transform="translate(238,181)"/>
<path d="M0 0 C0.66 0.33 1.32 0.66 2 1 C1.67 1.66 1.34 2.32 1 3 C0.960008 4.99960012 0.95653201 7.00047242 1 9 C0.01 8.01 -0.98 7.02 -2 6 C-2.99 6.33 -3.98 6.66 -5 7 C-3.70700306 4.11562221 -2.34058637 2.12780579 0 0 Z " fill="#2F2F2F" transform="translate(105,162)"/>
<path d="M0 0 C0.66 0 1.32 0 2 0 C1.67 2.97 1.34 5.94 1 9 C0.01 8.34 -0.98 7.68 -2 7 C-1.125 2.25 -1.125 2.25 0 0 Z " fill="#E1E1E1" transform="translate(97,252)"/>
</svg>
